<svg width="20" height="18" viewBox="0 0 20 18" fill="none" xmlns="http://www.w3.org/2000/svg">
<path d="M0 0H20V18H0V0ZM17.5 16.2H18V1.8H2V16.2H2.5C2.5 15.0065 3.02678 13.8619 3.96447 13.018C4.90215 12.1741 6.17392 11.7 7.5 11.7H12.5C13.8261 11.7 15.0979 12.1741 16.0355 13.018C16.9732 13.8619 17.5 15.0065 17.5 16.2ZM10 4.5C9.33696 4.5 8.70107 4.73705 8.23223 5.15901C7.76339 5.58097 7.5 6.15326 7.5 6.75C7.5 7.34674 7.76339 7.91903 8.23223 8.34099C8.70107 8.76295 9.33696 9 10 9C10.663 9 11.2989 8.76295 11.7678 8.34099C12.2366 7.91903 12.5 7.34674 12.5 6.75C12.5 6.15326 12.2366 5.58097 11.7678 5.15901C11.2989 4.73705 10.663 4.5 10 4.5ZM5.5 6.75C5.5 5.67587 5.97411 4.64574 6.81802 3.88622C7.66193 3.1267 8.80653 2.7 10 2.7C11.1935 2.7 12.3381 3.1267 13.182 3.88622C14.0259 4.64574 14.5 5.67587 14.5 6.75C14.5 7.82413 14.0259 8.85426 13.182 9.61378C12.3381 10.3733 11.1935 10.8 10 10.8C8.80653 10.8 7.66193 10.3733 6.81802 9.61378C5.97411 8.85426 5.5 7.82413 5.5 6.75ZM7.5 13.5C6.70435 13.5 5.94129 13.7845 5.37868 14.2908C4.81607 14.7972 4.5 15.4839 4.5 16.2H15.5C15.5 15.4839 15.1839 14.7972 14.6213 14.2908C14.0587 13.7845 13.2956 13.5 12.5 13.5H7.5Z" fill="white"/>
</svg>
